<svg xmlns="http://www.w3.org/2000/svg" xmlns:xlink="http://www.w3.org/1999/xlink" version="1.1" id="Layer_1" x="0px" y="0px" viewBox="0 0 153.5 25.2" style="enable-background:new 0 0 153.5 25.2;" xml:space="preserve" width="153.5"  height="25.2" >
<style type="text/css">
	.st0{fill:#1B2A4E;}
	.st1{fill:#3366FF;}
</style>
<g>
	<path class="st0" d="M135.8,3.5h-3.7l-5,6.9l0,0l-0.1,0.2l-0.1-0.2l0,0l-5-6.9H118l6.7,9.3l-7.1,9.7h3.8l5.3-7.4l0.3-0.4l0.3,0.4   l5.3,7.4h3.8l-7.1-9.7L135.8,3.5z"/>
	<path class="st0" d="M137.7,3.5v2.9h6.3v16.1h3.2V6.3h6.3V3.5H137.7z"/>
	<path class="st0" d="M51,14.5c1-0.9,1.8-1.9,2.5-3.1c0.4-0.9,0.7-1.9,0.7-2.9c0.1-1.5-0.6-2.9-1.8-3.9c-1.4-1-3-1.5-4.7-1.4   c-1.4,0-2.8,0.2-4,0.8c-1.1,0.5-2.1,1.2-2.9,2.1l1.8,1.6c1.2-1.4,3-2.2,4.9-2.1c1.1-0.1,2.1,0.2,3,0.8c0.7,0.6,1.1,1.4,1,2.3   c0,0.7-0.2,1.4-0.5,2c-0.5,0.9-1.1,1.7-1.9,2.3l-7.7,7.5v1.8H55v-2.4h-9.7L51,14.5z"/>
	<path class="st0" d="M65.3,3.1c-1.2,0-2.3,0.2-3.4,0.7c-1,0.5-1.8,1.2-2.4,2.1c-1.2,1.9-1.2,4.3-0.1,6.2c0.6,0.9,1.4,1.6,2.3,2   c1.1,0.5,2.2,0.7,3.3,0.7c1.1,0,2.2-0.2,3.2-0.6c0.8-0.3,1.5-0.9,2.1-1.6l0.2-0.2V13c0.1,1.9-0.5,3.8-1.7,5.3   c-1.2,1.3-2.9,1.9-4.6,1.8c-1.3,0.1-2.5-0.2-3.7-0.9l-1,2.1c0.7,0.4,1.4,0.7,2.1,0.8c0.9,0.2,1.7,0.3,2.6,0.3   c1.6,0,3.3-0.4,4.7-1.2c1.4-0.8,2.5-2,3.1-3.4c0.8-1.7,1.2-3.5,1.1-5.4c0.2-2.5-0.6-5-2.1-7C69.8,3.9,67.6,2.9,65.3,3.1L65.3,3.1z    M69.4,10.8c-0.4,0.6-0.9,1-1.6,1.3c-0.7,0.3-1.5,0.5-2.3,0.5c-1.1,0.1-2.3-0.3-3.1-1C61.7,11,61.3,10,61.3,9c0-1,0.4-2,1.2-2.7   c0.9-0.7,1.9-1.1,3-1c0.8,0,1.7,0.1,2.5,0.5c0.6,0.3,1.2,0.7,1.5,1.3C69.8,7.6,70,8.3,70,8.9C70,9.6,69.8,10.2,69.4,10.8L69.4,10.8   z"/>
	<path class="st0" d="M92.1,16.7L81.5,3.5h-2.6v19h3.2V9.3l10.5,13.1l0.1,0.1h2.6v-19h-3.2V16.7z"/>
	<path class="st0" d="M101,22.5h13.4v-2.9h-10.2v-5.4h9.2v-2.8h-9.2V6.3h10.2V3.4H101V22.5z"/>
</g>
<path class="st1" d="M25,0v2.5c1.4,0,2.6,1.1,2.6,2.6v15c0,1.5-1.2,2.7-2.7,2.7c-0.6,0-1.1-0.2-1.6-0.5L5.5,9.3v3.1l16.3,11.9  c0.9,0.6,2,1,3,1c0.8,0,1.6-0.2,2.3-0.6c1.7-0.9,2.8-2.7,2.8-4.6V5.1C30.1,2.3,27.8,0,25,0z"/>
<path class="st1" d="M4,2.8c0.9-0.5,2-0.4,2.8,0.2l17.8,13v-3.1L8.2,1C5.9-0.7,2.7-0.2,1,2.2C0.3,3,0,4.1,0,5.2v15  c0,2.8,2.3,5.1,5.1,5.1v-2.5c-1.4,0-2.6-1.1-2.6-2.6v-15C2.5,4.2,3.1,3.3,4,2.8z"/>
</svg>