<svg xmlns:xlink="http://www.w3.org/1999/xlink" xmlns="http://www.w3.org/2000/svg" width="570" height="110" viewBox="0 0 570 110" fill="none">
<path d="M541.324 68.2158V33.3983H549.542V36.7708C551.347 34.4433 553.959 33.1133 557.189 33.1133C564.409 33.1133 569.207 38.3858 569.207 46.3183C569.207 54.1083 564.552 59.2858 557.379 59.2858C554.054 59.2858 551.347 57.9558 549.542 55.5808V68.2158H541.324ZM549.542 46.0808C549.542 50.0708 551.869 52.7783 555.194 52.7783C558.614 52.7783 560.942 50.0233 560.942 46.0808C560.942 42.1858 558.614 39.4308 555.194 39.4308C551.869 39.4308 549.542 42.1858 549.542 46.0808Z" fill="#F26419"/>
<path d="M491.349 59.0001V33.3976H499.519V37.6251C501.276 34.5851 504.221 33.0651 507.974 33.0176C512.154 33.0176 515.241 35.2026 516.524 38.8126C518.186 35.0126 521.321 33.0651 525.549 33.0176C531.154 33.0176 534.764 36.8651 534.764 42.8501V59.0001H526.594V45.1301C526.594 42.0901 524.884 40.2376 522.176 40.2376C519.089 40.3326 517.189 42.8501 517.189 46.3176V59.0001H508.971V45.1301C508.971 42.0901 507.309 40.2376 504.601 40.2376C501.466 40.3326 499.519 42.8501 499.519 46.3176V59.0001H491.349Z" fill="#F26419"/>
<path d="M460.397 51.3526C460.397 46.5076 463.865 43.6576 470.23 43.6101H476.975V43.2301C476.975 40.7126 475.312 39.1926 471.987 39.1926C469.85 39.1926 467.047 39.9526 464.34 41.3301L462.012 35.9151C466.002 34.0626 469.612 33.0176 473.887 33.0176C480.917 33.0176 485.002 36.4851 485.05 42.2801V59.0001H477.022V56.0551C475.36 58.2401 472.652 59.3801 469.185 59.3801C463.722 59.3801 460.397 56.0551 460.397 51.3526ZM468.092 50.7826C468.092 52.6351 469.422 53.8226 471.702 53.8226C474.267 53.8226 476.452 52.3976 476.975 50.3076V48.0276H471.797C469.327 48.0276 468.092 48.8826 468.092 50.7826Z" fill="#F26419"/>
<path d="M429.962 59.0009V23.7559H438.179V37.6259C439.984 34.5859 442.977 33.0659 446.777 33.0184C452.429 33.0184 456.134 36.8659 456.134 42.8509V59.0009H447.917V45.1309C447.917 42.1384 446.207 40.2859 443.404 40.2859C440.174 40.2859 438.179 42.8509 438.179 46.3659V59.0009H429.962Z" fill="#F26419"/>
<path d="M394.225 42.2798C394.225 32.6848 401.872 25.4648 411.99 25.4648C416.93 25.4648 422.06 27.6498 425.385 31.0698L420.492 36.8648C418.307 34.2048 415.077 32.5423 412.132 32.5423C406.86 32.5423 402.87 36.7223 402.87 42.1848C402.87 47.7423 406.86 51.9698 412.132 51.9698C414.935 51.9698 418.165 50.4498 420.492 48.0748L425.432 53.2998C421.87 56.9573 416.597 59.3798 411.705 59.3798C401.682 59.3798 394.225 52.0173 394.225 42.2798Z" fill="#F26419"/>
<path d="M372.869 39.9534V34.5859H376.432V27.4609H384.602V34.5384H391.299V39.9534H384.602V49.9759C384.602 51.9709 385.457 52.8259 386.977 52.7784C387.832 52.7784 388.924 52.4459 390.159 51.9234L391.774 57.6234C389.922 58.7159 387.404 59.3809 384.934 59.3809C379.994 59.3809 376.432 56.5784 376.432 51.2584V39.9534H372.869Z" fill="#001342"/>
<path d="M342.513 49.5484V33.3984H350.73V47.2209C350.73 50.2609 352.393 52.1134 355.005 52.1134C358.14 52.0659 359.993 49.5009 359.993 46.0334V33.3984H368.21V59.0009H359.993V54.7734C358.235 57.8134 355.385 59.3334 351.68 59.3334C346.123 59.3334 342.513 55.5334 342.513 49.5484Z" fill="#001342"/>
<path d="M310.416 46.1758C310.416 38.2908 316.021 33.1133 324.429 33.1133C332.789 33.1133 338.394 38.2908 338.394 46.1758C338.394 54.0608 332.789 59.2858 324.429 59.2858C316.021 59.2858 310.416 54.0608 310.416 46.1758ZM318.681 46.2708C318.681 50.2608 321.009 52.9208 324.429 52.9208C327.801 52.9208 330.129 50.2608 330.129 46.2708C330.129 42.3283 327.801 39.6208 324.429 39.6208C321.009 39.6208 318.681 42.3283 318.681 46.2708Z" fill="#001342"/>
<path d="M283.742 59.0009V23.7559H291.96V42.3759L300.415 33.3984H309.725L300.32 43.2309L310.01 59.0009H300.272L294.715 49.1209L291.96 52.0184V59.0009H283.742Z" fill="#001342"/>
<path d="M254.22 46.2708C254.22 38.3858 259.587 33.1133 267.52 33.1133C272.602 33.1133 276.687 35.2033 278.92 38.8608L273.03 42.4233C271.842 40.7608 270.085 39.7633 267.852 39.7633C264.67 39.7633 262.485 42.3758 262.485 46.2233C262.485 50.1658 264.67 52.7308 267.852 52.7308C270.18 52.7308 271.985 51.7808 273.077 49.8333L279.062 53.3483C276.972 57.1008 272.84 59.2858 267.425 59.2858C259.54 59.2858 254.22 54.0608 254.22 46.2708Z" fill="#001342"/>
<path d="M225.171 46.2708C225.171 38.3383 230.586 33.1133 238.518 33.1133C247.543 33.1133 252.008 39.0508 251.438 48.4083H233.436C234.243 51.4483 236.428 53.1583 239.468 53.1583C241.701 53.1583 243.886 52.2558 245.596 50.5458L249.918 54.7733C247.306 57.6233 243.458 59.2858 238.756 59.2858C230.396 59.2858 225.171 54.0608 225.171 46.2708ZM233.293 43.9908H243.553C243.553 40.8558 241.558 38.8133 238.613 38.8133C235.763 38.8133 233.816 40.9033 233.293 43.9908Z" fill="#001342"/>
<path d="M194.878 59.0009V23.7559H203.095V37.6259C204.9 34.5859 207.893 33.0659 211.693 33.0184C217.345 33.0184 221.05 36.8659 221.05 42.8509V59.0009H212.833V45.1309C212.833 42.1384 211.123 40.2859 208.32 40.2859C205.09 40.2859 203.095 42.8509 203.095 46.3659V59.0009H194.878Z" fill="#001342"/>
<path d="M159.14 42.2798C159.14 32.6848 166.787 25.4648 176.905 25.4648C181.845 25.4648 186.975 27.6498 190.3 31.0698L185.407 36.8648C183.222 34.2048 179.992 32.5423 177.047 32.5423C171.775 32.5423 167.785 36.7223 167.785 42.1848C167.785 47.7423 171.775 51.9698 177.047 51.9698C179.85 51.9698 183.08 50.4498 185.407 48.0748L190.347 53.2998C186.785 56.9573 181.512 59.3798 176.62 59.3798C166.597 59.3798 159.14 52.0173 159.14 42.2798Z" fill="#001342"/>
<path d="M229.853 85.0001V73.4336H233.07L236.205 80.3141L239.34 73.4336H242.541V85.0001H239.951L239.934 77.4926L237.162 83.8451H235.248L232.476 77.4926V85.0001H229.853Z" fill="#001342"/>
<path d="M209.217 79.2091C209.217 75.8431 211.89 73.3516 215.454 73.3516C219.034 73.3516 221.707 75.8596 221.707 79.2091C221.707 82.5751 219.034 85.1326 215.454 85.1326C211.89 85.1326 209.217 82.5916 209.217 79.2091ZM212.22 79.2256C212.22 81.1726 213.721 82.6741 215.487 82.6741C217.269 82.6741 218.688 81.1726 218.688 79.2256C218.688 77.2786 217.269 75.8101 215.487 75.8101C213.705 75.8101 212.22 77.2786 212.22 79.2256Z" fill="#001342"/>
<path d="M191.386 79.1926C191.386 75.8596 194.042 73.3516 197.557 73.3516C199.273 73.3516 201.055 74.1106 202.21 75.2986L200.51 77.3116C199.751 76.3876 198.629 75.8101 197.606 75.8101C195.775 75.8101 194.389 77.2621 194.389 79.1596C194.389 81.0901 195.775 82.5586 197.606 82.5586C198.58 82.5586 199.702 82.0306 200.51 81.2056L202.226 83.0206C200.989 84.2911 199.157 85.1326 197.458 85.1326C193.976 85.1326 191.386 82.5751 191.386 79.1926Z" fill="#001342"/>
<path d="M179.126 80.8415V79.043H183.482V80.8415H179.126Z" fill="#001342"/>
<path d="M161.655 84.9992V73.4492H170.697V75.7592H164.592V78.0527H170.103V80.3627H164.592V82.6892H170.879V84.9992H161.655Z" fill="#001342"/>
<path d="M250.155 85.0001V73.4336H253.373L256.508 80.3141L259.643 73.4336H262.844V85.0001H260.253L260.237 77.4926L257.465 83.8451H255.551L252.779 77.4926V85.0001H250.155Z" fill="#001342"/>
<path d="M269.155 84.9992V73.4492H278.197V75.7592H272.092V78.0527H277.603V80.3627H272.092V82.6892H278.379V84.9992H269.155Z" fill="#001342"/>
<path d="M287.155 84.9992V73.4492H292.32C295.372 73.4492 297.121 74.9012 297.121 77.4752C297.121 79.2407 296.379 80.5112 295.026 81.1877L297.451 84.9992H294.118L292.402 81.7487H292.32H290.092V84.9992H287.155ZM290.092 79.4387H292.32C293.59 79.4387 294.333 78.7952 294.333 77.5742C294.333 76.3697 293.59 75.7592 292.32 75.7592H290.092V79.4387Z" fill="#001342"/>
<path d="M305.396 79.1926C305.396 75.8596 308.053 73.3516 311.567 73.3516C313.283 73.3516 315.065 74.1106 316.22 75.2986L314.521 77.3116C313.762 76.3876 312.64 75.8101 311.617 75.8101C309.785 75.8101 308.399 77.2621 308.399 79.1596C308.399 81.0901 309.785 82.5586 311.617 82.5586C312.59 82.5586 313.712 82.0306 314.521 81.2056L316.237 83.0206C314.999 84.2911 313.168 85.1326 311.468 85.1326C307.987 85.1326 305.396 82.5751 305.396 79.1926Z" fill="#001342"/>
<path d="M324.155 84.9992V73.4492H333.197V75.7592H327.092V78.0527H332.603V80.3627H327.092V82.6892H333.379V84.9992H324.155Z" fill="#001342"/>
<path d="M554.563 84.9992V73.4492H559.53C563.16 73.4492 565.668 75.7922 565.668 79.2242C565.668 82.6397 563.127 84.9992 559.414 84.9992H554.563ZM557.5 82.6562H559.596C561.394 82.6562 562.681 81.2702 562.681 79.2407C562.681 77.1947 561.328 75.7922 559.464 75.7922H557.5V82.6562Z" fill="#001342"/>
<path d="M536.846 84.9992V73.4492H545.888V75.7592H539.783V78.0527H545.294V80.3627H539.783V82.6892H546.069V84.9992H536.846Z" fill="#001342"/>
<path d="M517.225 79.2256C517.225 75.8761 519.947 73.3516 523.594 73.3516C525.31 73.3516 527.125 74.0116 528.313 75.0676L526.663 77.0641C525.821 76.2886 524.65 75.8101 523.577 75.8101C521.68 75.8101 520.228 77.2951 520.228 79.2256C520.228 81.1891 521.696 82.6741 523.61 82.6741C524.204 82.6741 524.963 82.4596 525.656 82.1131V79.1266H528.197V83.6311C526.96 84.5056 525.013 85.1326 523.396 85.1326C519.881 85.1326 517.225 82.5916 517.225 79.2256Z" fill="#001342"/>
<path d="M499.443 84.9992V73.4492H504.608C507.66 73.4492 509.409 74.9012 509.409 77.4752C509.409 79.2407 508.667 80.5112 507.314 81.1877L509.739 84.9992H506.406L504.69 81.7487H504.608H502.38V84.9992H499.443ZM502.38 79.4387H504.608C505.878 79.4387 506.621 78.7952 506.621 77.5742C506.621 76.3697 505.878 75.7592 504.608 75.7592H502.38V79.4387Z" fill="#001342"/>
<path d="M478.908 84.9992L483.891 73.4492H486.911L491.778 84.9992H488.643L487.818 82.8707H482.769L481.928 84.9992H478.908ZM483.627 80.6432H486.96L485.31 76.3697L483.627 80.6432Z" fill="#001342"/>
<path d="M460.575 84.9992V73.4492H463.512V78.2012H468.297V73.4492H471.234V84.9992H468.297V80.5112H463.512V84.9992H460.575Z" fill="#001342"/>
<path d="M441.791 79.1926C441.791 75.8596 444.448 73.3516 447.962 73.3516C449.678 73.3516 451.46 74.1106 452.615 75.2986L450.916 77.3116C450.157 76.3876 449.035 75.8101 448.012 75.8101C446.18 75.8101 444.794 77.2621 444.794 79.1596C444.794 81.0901 446.18 82.5586 448.012 82.5586C448.985 82.5586 450.107 82.0306 450.916 81.2056L452.632 83.0206C451.394 84.2911 449.563 85.1326 447.863 85.1326C444.382 85.1326 441.791 82.5751 441.791 79.1926Z" fill="#001342"/>
<path d="M424.011 84.9992V73.4492H429.175C432.228 73.4492 433.977 74.9012 433.977 77.4752C433.977 79.2407 433.234 80.5112 431.881 81.1877L434.307 84.9992H430.974L429.258 81.7487H429.175H426.948V84.9992H424.011ZM426.948 79.4387H429.175C430.446 79.4387 431.188 78.7952 431.188 77.5742C431.188 76.3697 430.446 75.7592 429.175 75.7592H426.948V79.4387Z" fill="#001342"/>
<path d="M406.292 84.9992V73.4492H415.334V75.7592H409.229V78.0527H414.74V80.3627H409.229V82.6892H415.515V84.9992H406.292Z" fill="#001342"/>
<path d="M388.478 84.9992V73.4492H393.51C396.464 73.4492 398.163 74.9012 398.163 77.4752C398.163 80.1812 396.464 81.7487 393.51 81.7487H391.415V84.9992H388.478ZM391.415 79.4387H393.362C394.649 79.4387 395.391 78.7952 395.391 77.5742C395.391 76.3697 394.649 75.7592 393.362 75.7592H391.415V79.4387Z" fill="#001342"/>
<path d="M369.176 80.1482V73.4492H372.113V80.1482C372.113 81.7157 373.119 82.6727 374.522 82.6727C375.908 82.6727 376.848 81.7157 376.848 80.1482V73.4492H379.769V80.1482C379.769 83.2007 377.739 85.1312 374.505 85.1312C371.255 85.1312 369.176 83.2007 369.176 80.1482Z" fill="#001342"/>
<path d="M351.28 83.2514L352.419 80.9909C353.607 82.0304 355.389 82.7234 356.593 82.7234C357.517 82.7234 358.095 82.3769 358.095 81.7169C358.095 79.6709 351.99 80.8919 351.99 76.7999C351.99 74.6714 353.821 73.3184 356.593 73.3184C358.26 73.3184 359.959 73.8299 361.147 74.6054L360.042 76.8989C358.821 76.1894 357.286 75.6944 356.346 75.6944C355.587 75.6944 355.075 75.9749 355.075 76.5359C355.075 78.5324 361.18 77.3939 361.18 81.5684C361.18 83.8784 359.134 85.0994 356.56 85.0994C354.63 85.0994 352.65 84.3734 351.28 83.2514Z" fill="#001342"/>
<g clip-path="url(#clip0_4891_4001)">
<path d="M83.8699 87.3066H83.8673C77.7403 87.3066 72.772 92.2229 72.772 98.285C72.772 104.347 77.7403 109.261 83.8673 109.261C89.997 109.261 94.9653 104.347 94.9653 98.2825C94.9653 92.2229 89.997 87.3066 83.8699 87.3066Z" fill="#F26419"/>
<path d="M124.136 73.7871L124.134 73.7896C119.064 73.7896 114.953 77.8554 114.953 82.8726C114.953 87.8898 119.064 91.9581 124.136 91.9581C129.209 91.9581 133.317 87.8898 133.317 82.8726C133.317 77.8554 129.207 73.7871 124.136 73.7871Z" fill="#F26419"/>
<path d="M40.9154 46.7776C34.7585 44.9378 27.7212 46.1619 22.5216 49.8365C19.7988 51.7595 18.3266 54.2329 16.2006 56.6053C18.8613 53.6423 22.7505 54.0108 22.7505 54.0108C19.1448 56.4361 17.0509 59.5833 14.8578 62.1827C9.75522 67.5331 0 67.046 0 67.046C4.15767 71.884 13.1593 71.1194 20.1345 67.9294C27.1096 64.7342 28.5021 67.1848 28.5021 67.1848C23.1159 66.7784 18.8388 71.3843 18.8388 71.3843C21.4648 70.0291 25.1301 70.9123 30.9365 71.3011C36.1759 71.821 42.2507 71.3919 46.1871 67.4978C52.9706 60.7871 49.9667 49.4781 40.9154 46.7776Z" fill="#F26419"/>
<path d="M127.911 65.6066H127.913C131.984 64.2691 134.508 60.2411 133.914 56.0365L126.081 0.738281L47.311 26.4909L35.947 3.5447L6.30615 5.50068L6.98003 15.1466L30.0611 13.6398L43.6382 41.063L53.8509 37.7317L65.8315 61.9269L55.7781 65.5764L62.4821 79.1164C64.4416 83.071 69.0543 84.9866 73.2791 83.5935L127.911 65.6066ZM60.8781 35.4351L91.0089 25.5999C101.542 22.1601 113.279 27.2101 117.248 37.4565C121.485 48.3971 115.594 60.4961 104.477 64.1252L101.575 65.0716C100.861 65.3064 100.272 64.4961 100.717 63.8955C101.085 63.3983 101.426 62.881 101.731 62.4166C101.92 62.1313 102.097 61.8613 102.261 61.6292C103.989 59.1484 105.919 56.1325 105.63 53.003C105.344 49.8962 103.218 47.274 100.612 45.6639C99.7421 45.1263 98.9911 44.5459 98.2799 43.9981C96.3974 42.542 94.7985 41.3078 91.9564 41.6359C89.5194 41.9186 87.2317 42.7918 84.9465 43.6625C83.9369 44.0462 82.9299 44.4323 81.9102 44.7654L89.1091 44.8512C89.9993 44.8638 90.8747 45.0859 91.658 45.5023L98.5957 49.187C100.759 50.3354 101.818 52.9121 100.898 55.1633C99.654 58.1688 97.1721 60.4683 94.1098 61.4525L90.2406 62.7144C88.6817 63.2239 86.9801 62.998 85.6029 62.0987L78.3941 57.3666L72.7495 59.4158L60.8781 35.4351Z" fill="#F26419"/>
</g>
<defs>
<clipPath id="clip0_4891_4001">
<rect width="134" height="110" fill="white"/>
</clipPath>
</defs>
</svg>