<svg width="195" height="34" viewBox="0 0 195 34" fill="none" xmlns="http://www.w3.org/2000/svg">
<path fill-rule="evenodd" clip-rule="evenodd" d="M28.7906 10.5H12L15.8803 2.06475C16.3213 1.10572 17.223 0.5 18.2094 0.5H35L31.1197 8.93525C30.6787 9.89428 29.777 10.5 28.7906 10.5Z" fill="#5900CF"/>
<path fill-rule="evenodd" clip-rule="evenodd" d="M23 12L19.1213 20.4335C18.6791 21.3943 17.7769 22 16.7928 22H0L3.87871 13.5662C4.32087 12.6054 5.22328 12 6.2102 12H23Z" fill="#FFCD00"/>
<mask id="mask0_887_76577" style="mask-type:luminance" maskUnits="userSpaceOnUse" x="2" y="23" width="23" height="11">
<path d="M2.17188 23.6777H24.9716V33.5006H2.17188V23.6777Z" fill="white"/>
</mask>
<g mask="url(#mask0_887_76577)">
<path fill-rule="evenodd" clip-rule="evenodd" d="M18.8163 33.5007H2.17188L6.01836 25.2148C6.45557 24.2725 7.34941 23.6777 8.32722 23.6777H24.9716L21.1251 31.9634C20.6879 32.9057 19.7941 33.5007 18.8163 33.5007Z" fill="#5900CF"/>
</g>
<path fill-rule="evenodd" clip-rule="evenodd" d="M62 20.8405V24.5H49V8.5H61.7691V11.1122C61.7691 11.6909 61.2838 12.1597 60.6855 12.1597H53.491V14.6701H59.8757V18.1068H53.491V20.8405H62Z" fill="black"/>
<path fill-rule="evenodd" clip-rule="evenodd" d="M65 8.5H69.6185L73.0055 19.468L76.3815 8.5H81L75.3698 24.5H70.6304L65 8.5Z" fill="black"/>
<path fill-rule="evenodd" clip-rule="evenodd" d="M97 20.8405V24.5H84V8.5H96.7689V11.1122C96.7689 11.6909 96.2838 12.1597 95.6855 12.1597H88.4912V14.6701H94.8757V18.1068H88.4912V20.8405H97Z" fill="black"/>
<path fill-rule="evenodd" clip-rule="evenodd" d="M111.586 12.8459C111.265 12.5447 110.85 12.394 110.342 12.394H107.36V15.5851H110.342C110.85 15.5851 111.265 15.4325 111.586 15.1277C111.907 14.8226 112.068 14.4415 112.068 13.9838C112.068 13.5264 111.907 13.1471 111.586 12.8459ZM103 8.5H110.577C112.274 8.5 113.673 9.02614 114.775 10.0789C115.877 11.1314 116.428 12.4349 116.428 13.9895C116.428 14.6294 116.333 15.2261 116.142 15.7803C115.952 16.3346 115.722 16.7846 115.453 17.1304C115.184 17.4764 114.915 17.77 114.646 18.0119C114.377 18.2537 114.153 18.4192 113.973 18.5083L113.671 18.6757L117 24.5H112.415L109.658 19.4681H107.36V24.5H103V8.5Z" fill="black"/>
<path fill-rule="evenodd" clip-rule="evenodd" d="M132 8.5V11.3465C132 11.9252 131.544 12.394 130.982 12.394H124.221V15.0161H130.221V18.8989H124.221V24.5H120V8.5H132Z" fill="black"/>
<path fill-rule="evenodd" clip-rule="evenodd" d="M138 24.5V8.5H142.179V20.6171H149V24.5H138Z" fill="black"/>
<path fill-rule="evenodd" clip-rule="evenodd" d="M157.15 20.2856C157.918 21.1603 158.87 21.5975 160.005 21.5975C161.141 21.5975 162.091 21.1603 162.855 20.2856C163.62 19.4107 164.003 18.3158 164.003 17C164.003 15.6842 163.62 14.5909 162.855 13.7199C162.091 12.8489 161.141 12.4135 160.005 12.4135C158.87 12.4135 157.918 12.8489 157.15 13.7199C156.382 14.5909 155.998 15.6842 155.998 17C155.998 18.3158 156.382 19.4107 157.15 20.2856ZM165.671 22.9936C164.118 24.6644 162.228 25.5 160 25.5C157.772 25.5 155.882 24.6644 154.329 22.9936C152.776 21.323 152 19.3247 152 17C152 14.6749 152.776 12.677 154.329 11.0062C155.882 9.3354 157.772 8.5 160 8.5C162.228 8.5 164.118 9.3354 165.671 11.0062C167.224 12.677 168 14.6749 168 17C168 19.3247 167.224 21.323 165.671 22.9936Z" fill="black"/>
<path fill-rule="evenodd" clip-rule="evenodd" d="M181.309 24.5H177.783L173 8.5H177.256L179.749 18.2182L182.343 8.5H185.667L188.261 18.2182L190.754 8.5H195L190.227 24.5H186.7L184.005 15.2504L181.309 24.5Z" fill="black"/>
</svg>
