<svg xmlns:xlink="http://www.w3.org/1999/xlink" xmlns="http://www.w3.org/2000/svg" id="Layer_1" data-name="Layer 1" viewBox="0 0 697.77 195.58" width="697.77"  height="195.58" >
  <defs>
    <style>
      .cls-1 {
        fill: #0076ff;
      }

      .cls-2 {
        fill: #00192d;
      }
    </style>
  </defs>
  <path class="cls-2" d="M43.63,143.49c-6.34-1.74-11.39-3.93-15.17-6.59l7.36-14.56c3.68,2.45,8.1,4.42,13.26,5.9,5.16,1.48,10.24,2.22,15.25,2.22,11.44,0,17.16-3.01,17.16-9.04,0-2.86-1.46-4.85-4.37-5.98-2.91-1.12-7.59-2.2-14.02-3.22-6.74-1.02-12.24-2.2-16.47-3.52-4.24-1.33-7.92-3.65-11.03-6.97-3.12-3.32-4.67-7.94-4.67-13.87,0-7.76,3.24-13.97,9.73-18.62,6.49-4.65,15.25-6.97,26.28-6.97,5.62,0,11.24.64,16.86,1.92,5.62,1.28,10.22,2.99,13.79,5.13l-7.36,14.56c-6.95-4.09-14.77-6.13-23.45-6.13-5.62,0-9.88.84-12.8,2.53-2.91,1.69-4.37,3.91-4.37,6.67,0,3.07,1.56,5.24,4.67,6.51,3.12,1.28,7.94,2.48,14.48,3.6,6.54,1.02,11.9,2.2,16.09,3.52,4.19,1.33,7.79,3.58,10.8,6.74,3.01,3.17,4.52,7.66,4.52,13.49,0,7.66-3.32,13.79-9.96,18.39-6.64,4.6-15.68,6.9-27.13,6.9-6.64,0-13.13-.87-19.46-2.61Z"/>
  <path class="cls-2" d="M165.2,140.84c-2.3,1.88-5.1,3.29-8.39,4.24-3.29.94-6.77,1.41-10.43,1.41-9.21,0-16.32-2.4-21.34-7.22-5.02-4.81-7.53-11.82-7.53-21.02V30.05h19.61v32.19h22.44v15.69h-22.44v39.85c0,4.08,1.02,7.19,3.06,9.34,2.04,2.14,4.89,3.22,8.55,3.22,4.39,0,8.05-1.15,10.98-3.45l5.49,13.96Z"/>
  <path class="cls-2" d="M181.44,69.74h19.65v76.59h-19.65v-76.59Z"/>
  <path class="cls-2" d="M242.34,141.1c-6.78-3.59-12.06-8.6-15.86-15.01-3.8-6.41-5.7-13.68-5.7-21.79s1.9-15.35,5.7-21.71c3.8-6.36,9.06-11.34,15.78-14.94,6.72-3.59,14.4-5.39,23.02-5.39,8.11,0,15.22,1.64,21.33,4.93,6.11,3.29,10.7,8.01,13.78,14.17l-14.78,8.62c-2.36-3.8-5.31-6.65-8.85-8.55-3.54-1.9-7.42-2.85-11.63-2.85-7.19,0-13.14,2.34-17.86,7.01-4.72,4.67-7.08,10.91-7.08,18.71s2.33,14.04,7.01,18.71c4.67,4.67,10.65,7.01,17.94,7.01,4.21,0,8.08-.95,11.63-2.85,3.54-1.9,6.49-4.75,8.85-8.55l14.78,8.62c-3.18,6.16-7.83,10.91-13.94,14.24-6.11,3.34-13.17,5-21.17,5-8.52,0-16.17-1.79-22.94-5.39Z"/>
  <path class="cls-2" d="M351.69,110.33l-14.62,13.83v22.17h-19.65V29.69h19.65v70.43l40.72-37.73h23.58l-35.06,35.21,38.36,48.73h-23.89l-29.08-36Z"/>
  <circle class="cls-1" cx="191.22" cy="41.91" r="12.29"/>
  <circle class="cls-1" cx="565.27" cy="41.91" r="12.29"/>
  <path class="cls-2" d="M555.48,69.74h19.65v76.59h-19.65v-76.59Z"/>
  <circle class="cls-2" cx="526.21" cy="134.26" r="12.29"/>
  <path class="cls-2" d="M632.91,62.35c-23.25,0-42.1,18.85-42.1,42.1s18.85,42.1,42.1,42.1,42.1-18.85,42.1-42.1-18.85-42.1-42.1-42.1ZM632.91,129.17c-13.65,0-24.72-11.07-24.72-24.72s11.07-24.72,24.72-24.72,24.72,11.07,24.72,24.72-11.07,24.72-24.72,24.72Z"/>
  <path class="cls-2" d="M499.14,62.38v74.72c0,31.01-15.23,46.51-45.69,46.51-8.03,0-15.7-1.07-23.01-3.22-7.32-2.14-13.34-5.25-18.06-9.32l9.24-15.5c3.74,3.19,8.3,5.72,13.69,7.59,5.39,1.87,11.05,2.8,16.99,2.8,9.01,0,15.64-2.17,19.88-6.51,4.23-4.35,6.35-11.02,6.35-20.04v-.77c-2.9,2.67-6.63,4.32-10.36,5.47-3.76,1.16-7.63,1.96-11.57,2.17-.65.04-1.3.06-1.96.06-9.48.08-19.17-2.93-26.1-9.57-6.76-6.49-10.14-16.22-10.14-29.2v-45.19h19.5v45.38c0,11.02,8.94,19.96,19.96,19.96s19.96-8.94,19.96-19.96v-45.38h21.33Z"/>
</svg>