<svg xmlns:xlink="http://www.w3.org/1999/xlink" viewBox="0 0 7616.47 1312.97" xmlns="http://www.w3.org/2000/svg" width="7616.47"  height="1312.97" ><path d="M1058.39 1282.77a2841.41 2841.41 0 0 1-805.07 0 262.7 262.7 0 0 1-224.36-224.36 2841.41 2841.41 0 0 1 0-805.07 262.74 262.74 0 0 1 224.37-224.3c267-38.2 538.07-38.2 805.07 0a262.7 262.7 0 0 1 224.3 224.31 2840.68 2840.68 0 0 1 0 805.07 262.71 262.71 0 0 1-224.3 224.36" fill="#23AB66"></path><path d="M789.76 957.33V850.95a31.65 31.65 0 0 0-31.64-31.64H553.3a31.62 31.62 0 0 0-31.64 31.64v106.58a31.62 31.62 0 0 0 31.64 31.63h204.89a31.48 31.48 0 0 0 22.52-9.29 31.5 31.5 0 0 0 9.24-22.54h-.2Zm201.47-496.21V354.54a31.6 31.6 0 0 0-31.64-31.63H352.04a31.61 31.61 0 0 0-31.62 31.63v106.58a31.64 31.64 0 0 0 31.62 31.63h607.63a31.66 31.66 0 0 0 31.57-31.63m-132.31 279.7h-406.3A31.62 31.62 0 0 1 421 709.18V602.47a31.66 31.66 0 0 1 31.63-31.63h406.3a31.66 31.66 0 0 1 31.63 31.63v106.58a31.68 31.68 0 0 1-19.5 29.35 31.6 31.6 0 0 1-12.13 2.42" fill="#FFFFFF"></path><path d="m7374.33 780.55 217.81-214.23a70.4 70.4 0 0 0-97.71-101.34l-235.06 233.97V257.26a74.6 74.6 0 0 0-6-28.93 75.74 75.74 0 0 0-41.37-40.61 75.58 75.58 0 0 0-29.01-5.48 73.92 73.92 0 0 0-72.15 75.01v793.32a73.96 73.96 0 0 0 20.64 52.36 73.76 73.76 0 0 0 51.51 22.65 75.57 75.57 0 0 0 70.38-46.1 74.74 74.74 0 0 0 6-28.93V862.92l234.17 242.57a74 74 0 0 0 50.4 19.83 73.85 73.85 0 0 0 50.35-19.83 75.77 75.77 0 0 0 19.15-52.52 75.7 75.7 0 0 0-22.04-51.37l-217.07-221.08Zm-2786.62 0 217.81-214.23a70.26 70.26 0 0 0 21.48-49.39 70.32 70.32 0 0 0-69.09-71.66 70.38 70.38 0 0 0-50.12 19.71l-235.06 233.97V257.26a75.72 75.72 0 0 0-47.39-69.54 75.6 75.6 0 0 0-29.03-5.48 73.87 73.87 0 0 0-72.13 75.01v793.32a73.9 73.9 0 0 0 72.13 75.01 75.58 75.58 0 0 0 53.75-21.68 75.71 75.71 0 0 0 22.67-53.35V862.92l234.22 242.63a74 74 0 0 0 50.4 19.83 73.8 73.8 0 0 0 50.35-19.83 75.77 75.77 0 0 0 19.15-52.52 75.7 75.7 0 0 0-22.04-51.37L4587.7 780.52Zm1961.41 118.93a56.17 56.17 0 0 1 43.66-1.46 55.9 55.9 0 0 1 31.38 30.33 155.93 155.93 0 0 0 61.14 61.39 155.88 155.88 0 0 0 84.52 19.2c67.83 0 116.78-30.29 116.78-80.59 0-43.32-41.84-62.05-90.84-73.87l-90.94-21.69c-142.78-38.88-194.75-116.85-186.01-224.97 8.65-99.52 116.83-177.43 240.87-177.43a243.4 243.4 0 0 1 216.37 99.53 64.4 64.4 0 0 1-12.97 86.5 62.22 62.22 0 0 1-45 13.24 62.35 62.35 0 0 1-41.47-21.9 177.67 177.67 0 0 0-115.39-46.14 117.55 117.55 0 0 0-94.01 36.07 63.63 63.63 0 0 0-9.91 28.14 62.85 62.85 0 0 0 4.14 29.54c8.65 25.99 49 38.95 85.08 49.1l103.86 25.99a199.3 199.3 0 0 1 175.97 199.05c0 129.81-114.18 203.35-268.3 203.35a256.13 256.13 0 0 1-245.19-152.92 62.3 62.3 0 0 1-4.18-24.05 62.6 62.6 0 0 1 5.44-23.79 62.23 62.23 0 0 1 14.23-19.83 62.53 62.53 0 0 1 20.78-12.79m-270.08-173.2a183.12 183.12 0 0 0-62.53-121.58 183.03 183.03 0 0 0-129.34-44.29 189 189 0 0 0-132.41 43.47 188.96 188.96 0 0 0-66.67 122.4h390.94Zm77.87 108.2H5888.2c6.69 49 31.66 93.64 69.97 124.95a195.53 195.53 0 0 0 136.31 43.81c59.83.34 117.39-23 160.12-64.94a75.88 75.88 0 0 1 95.17-5.78 65.1 65.1 0 0 1 21.67 46.39 65.2 65.2 0 0 1-4.51 25.75 64.69 64.69 0 0 1-14.27 21.88 366.85 366.85 0 0 1-121.85 80.3 366.95 366.95 0 0 1-143.57 26.41 338.44 338.44 0 0 1-249.9-101.47A339.09 339.09 0 0 1 5763 915.84a338.22 338.22 0 0 1-21.94-135.97 334.35 334.35 0 0 1 22.13-135.29 335 335 0 0 1 74.53-115.06 334.83 334.83 0 0 1 249.51-98.86 326.87 326.87 0 0 1 314.33 205.42 326.6 326.6 0 0 1 23.2 130.35c0 8.9-1.72 17.71-5.11 25.93a67.85 67.85 0 0 1-36.63 36.67 67.82 67.82 0 0 1-25.94 5.16l-.14.27ZM5247.51 574.85a197.18 197.18 0 0 0-79.13 13.89 197.92 197.92 0 0 0-67.09 44.28 197.95 197.95 0 0 0-43.84 67.35 197.84 197.84 0 0 0-13.34 79.24 204.82 204.82 0 1 0 203.4-204.76m207.72-317.38a75.8 75.8 0 0 1 76.43-75.02 73.92 73.92 0 0 1 51.51 22.65 73.92 73.92 0 0 1 20.6 52.36v793.11a73.84 73.84 0 0 1-72.11 75.01 75.78 75.78 0 0 1-76.43-75.02v-30.22a260.1 260.1 0 0 1-225.01 112.49 335.66 335.66 0 0 1-243.94-102.85 335.78 335.78 0 0 1-93.64-247.63A332.86 332.86 0 0 1 4984 533.36a332.63 332.63 0 0 1 244.45-102.91 253.17 253.17 0 0 1 226.45 111.07l.33-284.07ZM3983.63 430.6a355.93 355.93 0 0 1 206.24 61.98 72.09 72.09 0 0 1 17.26 99.52 77.29 77.29 0 0 1-102.34 15.85 246.2 246.2 0 0 0-120.88-33.18 206.95 206.95 0 0 0-149.79 58.72 206.97 206.97 0 0 0-46.25 228.71 207.1 207.1 0 0 0 196.04 126.52 245.61 245.61 0 0 0 120.88-33.18 77.29 77.29 0 0 1 102.34 15.85 72 72 0 0 1-17.25 99.53 355.93 355.93 0 0 1-206.24 61.99 351.4 351.4 0 0 1-252.83-100.41 351.28 351.28 0 0 1 252.83-602.05v.13Zm-850.19 558.2a207 207 0 0 0 204.14-245.94 206.96 206.96 0 0 0-410.23 36.55 203.43 203.43 0 0 0 58.43 148.61 203.34 203.34 0 0 0 147.74 60.58l-.07.2Zm209.12 33.17a270.53 270.53 0 0 1-226.46 111.08 338.68 338.68 0 0 1-341.83-351.9 337.54 337.54 0 0 1 22.21-134.19 337.53 337.53 0 0 1 186.03-190.74 337.35 337.35 0 0 1 133.59-25.56 267.2 267.2 0 0 1 226.45 109.6v-27.4a73.85 73.85 0 0 1 72.13-75.01 75.78 75.78 0 0 1 53.88 21.45 75.68 75.68 0 0 1 22.88 53.29v537.99a75.72 75.72 0 0 1-76.41 75.03 73.87 73.87 0 0 1-72.12-75.01l-.34-28.61Zm-906.6-145.66v174.61a75.73 75.73 0 0 1-76.43 75.01 73.92 73.92 0 0 1-51.68-22.74 73.92 73.92 0 0 1-20.52-52.6V512.6a73.85 73.85 0 0 1 72.12-75.01 75.76 75.76 0 0 1 53.75 21.66 75.63 75.63 0 0 1 22.66 53.35v86.56c34.58-119.74 100.74-168.76 184.61-168.76 21.3-.3 42.57 1.64 63.47 5.78a71.23 71.23 0 0 1 53.39 85.08c-12.96 64.94-77.9 49.09-120.88 49.09-127.2.06-180.59 126.86-180.59 305.7l.07.27Zm-103.77-625.32c0 36.39-31.92 64.68-69.43 64.68h-220v735.24a75.7 75.7 0 0 1-76.43 75.01 73.94 73.94 0 0 1-72.15-75.01V315.67H1673.8c-37.51 0-69.44-28.29-69.44-64.68 0-39.11 31.93-68.75 69.44-68.75h588.95c37.51 0 69.43 29.65 69.43 68.75Z" fill="#39393A"></path></svg>