<?xml version="1.0" encoding="UTF-8" standalone="no"?>
<svg
   xmlns:dc="http://purl.org/dc/elements/1.1/"
   xmlns:cc="http://creativecommons.org/ns#"
   xmlns:rdf="http://www.w3.org/1999/02/22-rdf-syntax-ns#"
   xmlns:svg="http://www.w3.org/2000/svg"
   xmlns="http://www.w3.org/2000/svg"
   viewBox="0 0 1937.4399 385.21866"
   height="385.21866"
   width="1937.4399"
   xml:space="preserve"
   id="svg2"
   version="1.1"><metadata
     id="metadata8"><rdf:RDF><cc:Work
         rdf:about=""><dc:format>image/svg+xml</dc:format><dc:type
           rdf:resource="http://purl.org/dc/dcmitype/StillImage" /></cc:Work></rdf:RDF></metadata><defs
     id="defs6"><clipPath
       id="clipPath18"
       clipPathUnits="userSpaceOnUse"><path
         id="path16"
         d="M 0,288.914 H 1453.079 V 0 H 0 Z" /></clipPath></defs><g
     transform="matrix(1.3333333,0,0,-1.3333333,0,385.21867)"
     id="g10"><g
       id="g12"><g
         clip-path="url(#clipPath18)"
         id="g14"><g
           transform="translate(139.8029,111.2206)"
           id="g20"><path
             id="path22"
             style="fill:#ffffff;fill-opacity:1;fill-rule:nonzero;stroke:none"
             d="m 0,0 c 0,-27.057 -17.239,-50.614 -55.761,-50.147 -3.618,0 -7.236,0.233 -10.854,0.699 l 9.577,30.789 c 16.388,0.699 26.816,7.93 26.816,17.26 0,10.029 -6.597,13.995 -31.498,22.158 -34.479,11.429 -48.313,25.424 -48.313,49.448 0,21.459 14.26,47.116 52.569,47.116 6.385,0 12.557,-0.933 18.516,-2.799 l -17.451,-27.99 h -1.491 c -13.833,0 -22.133,-6.064 -22.133,-15.161 0,-7.696 5.959,-12.828 28.944,-20.525 C -22.134,41.285 0,30.089 0,0 m -88.111,1.399 c 1.064,-4.665 3.618,-9.795 10.215,-14.227 l -9.79,-29.622 c -14.685,7.464 -24.049,19.359 -26.39,32.887 z" /></g><path
           id="path24"
           style="fill:#ffffff;fill-opacity:1;fill-rule:nonzero;stroke:none"
           d="m 185.132,183.031 h 28.306 V 63.872 h -28.306 z m 68.318,14.258 H 144.907 v 29.855 H 253.45 Z" /><path
           id="path26"
           style="fill:#e5025d;fill-opacity:1;fill-rule:nonzero;stroke:none"
           d="m 370.499,63.872 h -98.965 v 29.622 h 98.965 z m -7.874,66.708 h -91.091 v 29.622 h 91.091 z m 6.598,66.709 h -97.688 v 29.855 h 97.688 z" /><g
           transform="translate(521.1779,63.872)"
           id="g28"><path
             id="path30"
             style="fill:#ffffff;fill-opacity:1;fill-rule:nonzero;stroke:none"
             d="M 0,0 H -32.138 L -68.957,116.623 -105.776,0 h -32.138 l 54.484,163.272 h 28.946 z" /></g><g
           transform="translate(624.3957,93.4941)"
           id="g32"><path
             id="path34"
             style="fill:#ffffff;fill-opacity:1;fill-rule:nonzero;stroke:none"
             d="M 0,0 V -29.622 H -77.044 L -49.589,0 Z m -61.082,11.692 -28.306,-30.789 v 133.533 h 28.306 z m 0,95.601 h -28.306 v 26.357 h 28.306 z" /></g><path
           id="path36"
           style="fill:#ffffff;fill-opacity:1;fill-rule:nonzero;stroke:none"
           d="m 653.765,183.031 h 28.307 V 63.872 h -28.307 z m 68.318,14.258 H 613.54 v 29.855 h 108.543 z" /><path
           id="path38"
           style="fill:#ffffff;fill-opacity:1;fill-rule:nonzero;stroke:none"
           d="m 856.797,173.294 h -28.306 v 53.851 h 28.306 z m -116.63,-35.571 h 28.306 V 63.872 h -28.306 z m 116.63,22.479 v -96.33 h -28.306 v 66.708 h -88.324 v 96.564 h 28.306 v -66.942 z" /><g
           transform="translate(1024.9241,93.4941)"
           id="g40"><path
             id="path42"
             style="fill:#ffffff;fill-opacity:1;fill-rule:nonzero;stroke:none"
             d="M 0,0 V -29.622 H -77.044 L -49.589,0 Z m -61.082,11.692 -28.306,-30.789 v 133.533 h 28.306 z m 0,95.601 h -28.306 v 26.357 h 28.306 z" /></g><g
           transform="translate(1173.4729,63.872)"
           id="g44"><path
             id="path46"
             style="fill:#e5025d;fill-opacity:1;fill-rule:nonzero;stroke:none"
             d="M 0,0 H -32.138 L -68.957,116.623 -105.776,0 h -32.138 l 54.484,163.272 h 28.946 z" /></g><g
           transform="translate(1264.3469,113.787)"
           id="g48"><path
             id="path50"
             style="fill:#ffffff;fill-opacity:1;fill-rule:nonzero;stroke:none"
             d="m 0,0 c 0,11.662 -7.023,20.292 -20.219,20.292 h -28.519 v -40.585 h 28.519 C -7.023,-20.293 0,-11.663 0,0 m 29.583,0 c 0,-28.689 -17.026,-49.915 -49.802,-49.915 h -56.825 v 99.829 h 53.846 c 11.067,0 15.749,7.931 15.749,16.794 0,8.863 -4.682,16.794 -15.749,16.794 h -53.846 v 29.855 h 53.207 c 28.52,0 45.333,-21.225 45.333,-46.649 C 21.496,54.813 16.175,44.083 8.088,36.152 21.07,29.155 29.583,17.026 29.583,0" /></g><g
           transform="translate(1369.6887,197.5214)"
           id="g52"><path
             id="path54"
             style="fill:#ffffff;fill-opacity:1;fill-rule:nonzero;stroke:none"
             d="m 0,0 h -56.607 v 29.623 h 78.315 z m 50.659,-104.027 v -29.622 H -62.992 v 29.622 L 13.84,0 h 35.116 l -76.831,-104.027 z" /></g></g></g></g></svg>