<svg xmlns="http://www.w3.org/2000/svg" viewBox="0 0 880 460" width="880" height="460">
  <defs>
    <linearGradient id="explosionFill" x1="0" y1="0" x2="0" y2="1">
      <stop offset="0%" stop-color="rgba(0,200,83,0.15)"/>
      <stop offset="100%" stop-color="rgba(0,200,83,0)"/>
    </linearGradient>
    <linearGradient id="gapFill" x1="0" y1="0" x2="0" y2="1">
      <stop offset="0%" stop-color="rgba(255,102,0,0.08)"/>
      <stop offset="100%" stop-color="rgba(255,102,0,0)"/>
    </linearGradient>
  </defs>

  <!-- Background -->
  <rect width="880" height="460" fill="transparent" rx="16"/>
  
  <!-- Grid -->
  <pattern id="grid5" width="40" height="40" patternUnits="userSpaceOnUse">
    <path d="M 40 0 L 0 0 0 40" fill="none" stroke="rgba(255,255,255,0.02)" stroke-width="1"/>
  </pattern>
  <rect width="880" height="460" fill="url(#grid5)" rx="16"/>

  <!-- Timeline base -->
  <line x1="60" y1="260" x2="830" y2="260" stroke="rgba(255,255,255,0.08)" stroke-width="2"/>

  <!-- Date markers -->
  <line x1="100" y1="252" x2="100" y2="268" stroke="rgba(255,255,255,0.15)" stroke-width="1.5"/>
  <text x="100" y="285" text-anchor="middle" fill="rgba(255,255,255,0.25)" font-family="'DM Mono', monospace" font-size="8">Nov 1</text>
  
  <line x1="190" y1="252" x2="190" y2="268" stroke="rgba(255,255,255,0.15)" stroke-width="1.5"/>
  <text x="190" y="285" text-anchor="middle" fill="rgba(255,255,255,0.25)" font-family="'DM Mono', monospace" font-size="8">Nov 15</text>
  
  <line x1="280" y1="252" x2="280" y2="268" stroke="#ff6600" stroke-width="2"/>
  <text x="280" y="285" text-anchor="middle" fill="#ff6600" font-family="'DM Mono', monospace" font-size="8" font-weight="500">Nov 25</text>
  
  <line x1="370" y1="252" x2="370" y2="268" stroke="rgba(255,255,255,0.15)" stroke-width="1.5"/>
  <text x="370" y="285" text-anchor="middle" fill="rgba(255,255,255,0.25)" font-family="'DM Mono', monospace" font-size="8">Dec 2</text>
  
  <line x1="460" y1="252" x2="460" y2="268" stroke="rgba(255,255,255,0.15)" stroke-width="1.5"/>
  <text x="460" y="285" text-anchor="middle" fill="rgba(255,255,255,0.25)" font-family="'DM Mono', monospace" font-size="8">Dec 15</text>
  
  <line x1="550" y1="252" x2="550" y2="268" stroke="#00c853" stroke-width="2"/>
  <text x="550" y="285" text-anchor="middle" fill="#00c853" font-family="'DM Mono', monospace" font-size="8" font-weight="500">Dec 22</text>
  
  <line x1="640" y1="252" x2="640" y2="268" stroke="rgba(255,255,255,0.15)" stroke-width="1.5"/>
  <text x="640" y="285" text-anchor="middle" fill="rgba(255,255,255,0.25)" font-family="'DM Mono', monospace" font-size="8">Jan 1</text>
  
  <line x1="730" y1="252" x2="730" y2="268" stroke="rgba(255,255,255,0.15)" stroke-width="1.5"/>
  <text x="730" y="285" text-anchor="middle" fill="rgba(255,255,255,0.25)" font-family="'DM Mono', monospace" font-size="8">Jan 15</text>
  
  <line x1="810" y1="252" x2="810" y2="268" stroke="rgba(255,255,255,0.15)" stroke-width="1.5"/>
  <text x="810" y="285" text-anchor="middle" fill="rgba(255,255,255,0.25)" font-family="'DM Mono', monospace" font-size="8">Jan 31</text>

  <!-- Pre-gap bars (blue-gray) -->
  <rect x="93" y="222" width="13" height="22" fill="rgba(100,150,200,0.4)" rx="2"/>
  <rect x="113" y="218" width="13" height="26" fill="rgba(100,150,200,0.4)" rx="2"/>
  <rect x="133" y="212" width="13" height="32" fill="rgba(100,150,200,0.45)" rx="2"/>
  <rect x="153" y="205" width="13" height="39" fill="rgba(100,150,200,0.45)" rx="2"/>
  <rect x="173" y="222" width="13" height="22" fill="rgba(100,150,200,0.4)" rx="2"/>
  <rect x="193" y="225" width="13" height="19" fill="rgba(100,150,200,0.35)" rx="2"/>
  <rect x="213" y="218" width="13" height="26" fill="rgba(100,150,200,0.4)" rx="2"/>
  <rect x="233" y="235" width="13" height="9" fill="rgba(100,150,200,0.3)" rx="2"/>
  <rect x="253" y="242" width="13" height="2" fill="rgba(100,150,200,0.2)" rx="2"/>

  <!-- THE GAP zone -->
  <rect x="275" y="110" width="95" height="150" fill="url(#gapFill)" stroke="rgba(255,102,0,0.3)" stroke-width="1" stroke-dasharray="4,4" rx="6"/>
  <text x="322" y="135" text-anchor="middle" fill="#ff6600" font-family="'Inter', sans-serif" font-size="13" font-weight="700">THE GAP</text>
  <text x="322" y="155" text-anchor="middle" fill="rgba(255,102,0,0.6)" font-family="'DM Mono', monospace" font-size="9">7 days</text>
  <text x="322" y="172" text-anchor="middle" fill="rgba(255,102,0,0.5)" font-family="'DM Mono', monospace" font-size="9">1.6 commits/day</text>
  
  <!-- Gap bars (minimal) -->
  <rect x="290" y="255" width="10" height="5" fill="rgba(255,255,255,0.1)" rx="1"/>
  <rect x="325" y="257" width="10" height="3" fill="rgba(255,255,255,0.08)" rx="1"/>
  <rect x="355" y="258" width="10" height="2" fill="rgba(255,255,255,0.06)" rx="1"/>

  <!-- Transition bars (building up) -->
  <rect x="383" y="228" width="13" height="16" fill="rgba(100,150,200,0.4)" rx="2"/>
  <rect x="403" y="215" width="13" height="29" fill="rgba(100,150,200,0.45)" rx="2"/>
  <rect x="423" y="205" width="13" height="39" fill="rgba(100,150,200,0.5)" rx="2"/>
  <rect x="443" y="200" width="13" height="44" fill="rgba(100,150,200,0.5)" rx="2"/>
  <rect x="463" y="190" width="13" height="54" fill="rgba(100,150,200,0.55)" rx="2"/>
  <rect x="483" y="208" width="13" height="36" fill="rgba(100,150,200,0.45)" rx="2"/>
  <rect x="503" y="220" width="13" height="24" fill="rgba(100,150,200,0.4)" rx="2"/>
  <rect x="523" y="232" width="13" height="12" fill="rgba(100,150,200,0.35)" rx="2"/>

  <!-- THE EXPLOSION zone -->
  <rect x="545" y="72" width="280" height="188" fill="url(#explosionFill)" stroke="rgba(0,200,83,0.25)" stroke-width="1" rx="6"/>
  <text x="685" y="92" text-anchor="middle" fill="#00c853" font-family="'Inter', sans-serif" font-size="13" font-weight="700">THE EXPLOSION</text>
  <text x="685" y="110" text-anchor="middle" fill="rgba(0,200,83,0.6)" font-family="'DM Mono', monospace" font-size="9">14-day burst: 44.6 commits/day</text>

  <!-- Explosion bars -->
  <rect x="550" y="160" width="16" height="100" fill="#00c853" opacity="0.7" rx="2"/>
  <text x="558" y="155" text-anchor="middle" fill="rgba(0,200,83,0.7)" font-family="'DM Mono', monospace" font-size="7">40</text>
  
  <rect x="570" y="152" width="16" height="108" fill="#00c853" opacity="0.7" rx="2"/>
  <text x="578" y="147" text-anchor="middle" fill="rgba(0,200,83,0.7)" font-family="'DM Mono', monospace" font-size="7">35</text>
  
  <rect x="590" y="170" width="16" height="90" fill="#00c853" opacity="0.65" rx="2"/>
  <text x="598" y="165" text-anchor="middle" fill="rgba(0,200,83,0.7)" font-family="'DM Mono', monospace" font-size="7">22</text>
  
  <rect x="610" y="142" width="16" height="118" fill="#00c853" opacity="0.75" rx="2"/>
  <text x="618" y="137" text-anchor="middle" fill="rgba(0,200,83,0.7)" font-family="'DM Mono', monospace" font-size="7">43</text>
  
  <rect x="630" y="162" width="16" height="98" fill="#00c853" opacity="0.7" rx="2"/>
  <text x="638" y="157" text-anchor="middle" fill="rgba(0,200,83,0.7)" font-family="'DM Mono', monospace" font-size="7">37</text>
  
  <!-- PEAK bar - Jan 1 -->
  <rect x="650" y="128" width="16" height="132" fill="#00c853" opacity="0.9" rx="2"/>
  <text x="658" y="122" text-anchor="middle" fill="#00c853" font-family="'DM Mono', monospace" font-size="9" font-weight="700">79</text>
  <text x="658" y="300" text-anchor="middle" fill="#00c853" font-family="'DM Mono', monospace" font-size="7" font-weight="500">PEAK</text>
  
  <rect x="670" y="162" width="16" height="98" fill="#00c853" opacity="0.7" rx="2"/>
  <text x="678" y="157" text-anchor="middle" fill="rgba(0,200,83,0.7)" font-family="'DM Mono', monospace" font-size="7">50</text>
  
  <rect x="690" y="165" width="16" height="95" fill="#00c853" opacity="0.65" rx="2"/>
  <text x="698" y="160" text-anchor="middle" fill="rgba(0,200,83,0.7)" font-family="'DM Mono', monospace" font-size="7">47</text>
  
  <rect x="710" y="148" width="16" height="112" fill="#00c853" opacity="0.7" rx="2"/>
  <text x="718" y="143" text-anchor="middle" fill="rgba(0,200,83,0.7)" font-family="'DM Mono', monospace" font-size="7">61</text>
  
  <rect x="730" y="160" width="16" height="100" fill="#00c853" opacity="0.65" rx="2"/>
  <text x="738" y="155" text-anchor="middle" fill="rgba(0,200,83,0.7)" font-family="'DM Mono', monospace" font-size="7">49</text>

  <!-- New baseline bars (sustained, slightly different green) -->
  <rect x="755" y="172" width="16" height="88" fill="rgba(0,200,83,0.5)" rx="2"/>
  <rect x="775" y="178" width="16" height="82" fill="rgba(0,200,83,0.5)" rx="2"/>
  <rect x="795" y="168" width="16" height="92" fill="rgba(0,200,83,0.5)" rx="2"/>
  <rect x="815" y="148" width="16" height="112" fill="rgba(0,200,83,0.5)" rx="2"/>

  <!-- New baseline line -->
  <line x1="755" y1="185" x2="835" y2="185" stroke="rgba(0,200,83,0.5)" stroke-width="1.5" stroke-dasharray="4,3"/>
  <text x="795" y="215" text-anchor="middle" fill="rgba(0,200,83,0.6)" font-family="'DM Mono', monospace" font-size="8" font-weight="500">NEW BASELINE</text>
  <text x="795" y="228" text-anchor="middle" fill="rgba(0,200,83,0.4)" font-family="'DM Mono', monospace" font-size="8">35+ commits/day</text>

  <!-- Phase metrics cards -->
  <rect x="60" y="315" width="200" height="65" fill="rgba(255,255,255,0.02)" stroke="rgba(255,255,255,0.04)" stroke-width="1" rx="8"/>
  <text x="75" y="335" fill="rgba(255,255,255,0.35)" font-family="'DM Mono', monospace" font-size="9">Phase Metrics</text>
  <text x="75" y="352" fill="rgba(100,150,200,0.6)" font-family="'DM Mono', monospace" font-size="8">Pre-gap: <tspan fill="rgba(255,255,255,0.4)">15.2/day</tspan></text>
  <text x="75" y="365" fill="rgba(255,102,0,0.6)" font-family="'DM Mono', monospace" font-size="8">Gap: <tspan fill="rgba(255,255,255,0.4)">1.6/day</tspan></text>
  <text x="170" y="352" fill="rgba(0,200,83,0.7)" font-family="'DM Mono', monospace" font-size="8">Burst: <tspan fill="rgba(255,255,255,0.4)">44.6/day</tspan></text>
  <text x="170" y="365" fill="rgba(0,200,83,0.5)" font-family="'DM Mono', monospace" font-size="8">Sustained: <tspan fill="rgba(255,255,255,0.4)">35.4/day</tspan></text>

  <!-- Key insight -->
  <rect x="580" y="315" width="260" height="55" fill="rgba(0,200,83,0.04)" stroke="rgba(0,200,83,0.15)" stroke-width="1" rx="8"/>
  <text x="710" y="337" text-anchor="middle" fill="#00c853" font-family="'Inter', sans-serif" font-size="11" font-weight="700">The Pattern</text>
  <text x="710" y="355" text-anchor="middle" fill="rgba(255,255,255,0.4)" font-family="'DM Mono', monospace" font-size="9">Something locked in permanently.</text>

  <!-- Version -->
  <text x="830" y="450" text-anchor="end" fill="rgba(255,255,255,0.1)" font-family="'DM Mono', monospace" font-size="8">CEM v3.0</text>
</svg>
